<svg xmlns="http://www.w3.org/2000/svg" width="879" height="226" viewBox="0 0 879 226" fill="none">
<circle cx="112.98" cy="112.798" r="112.798" fill="white"/>
<path fill-rule="evenodd" clip-rule="evenodd" d="M87.962 25.4057C87.962 25.4057 59.4926 33.6879 58.9748 68.369C58.4571 103.05 90.5502 106.932 90.5502 106.932C54.4523 118.395 36.1864 76.7697 50.9681 49.4301C60.8283 31.1938 82.8495 25.5866 87.962 25.4057ZM69.1321 82.6627C69.1321 82.6627 84.4535 61.8874 101.463 77.4688C101.463 77.4688 110.163 83.4419 106.657 96.0367C103.151 108.632 87.0506 115.124 72.8975 112.267C72.8975 112.267 33.9444 103.958 41.2157 56.4346C41.2157 56.4346 31.4773 64.0954 30.9579 83.0527C30.4386 102.01 39.2677 123.954 53.4208 135.64L51.2134 137.587C51.2134 137.587 28.7504 125.642 23.8163 91.8819C10.9989 120.08 35.918 166.581 63.5616 181.321C82.1664 191.242 105.913 193.81 132.106 185.37C132.106 185.37 133.34 184.656 134.314 185.63C135.288 186.604 135.223 187.448 133.34 188.292C131.457 189.136 109.903 200.432 75.2347 191.083C75.2347 191.083 91.9846 204.587 122.109 201.211C149.757 198.112 172.238 184.853 187.085 165.646C202.538 145.657 209.722 119.226 205.858 91.1029C201.184 57.0836 159.634 25.499 128.99 23.8433C128.99 23.8433 155.478 28.2579 173.657 56.0447C173.657 56.0447 187.42 73.444 184.564 93.1803C184.564 93.1803 179.889 55.7852 147.688 41.5022C147.688 41.5022 162.75 51.1106 168.203 73.1842C173.657 95.2578 166.645 113.955 143.013 124.603C151.907 111.169 151.665 100.125 148.467 84.8705C146.779 76.8201 148.727 75.3919 149.376 72.1457C150.025 68.8995 158.595 67.6011 158.595 67.6011C158.595 67.6011 141.455 62.9267 135.612 59.1611C129.769 55.3956 112.76 42.8006 105.618 44.8782C98.4768 46.9558 94.7114 50.2018 94.8413 55.0061C94.8413 55.0061 85.6224 55.0062 77.3123 62.7969C69.0021 70.5875 69.0021 78.8975 69.1321 82.6627ZM105.294 52.4091C105.294 52.4091 110.163 51.3055 113.539 57.0836C113.539 57.0836 111.851 56.1098 108.735 55.8501C105.618 55.5903 104.385 55.4606 103.93 54.227C103.476 52.9934 105.294 52.4091 105.294 52.4091Z" fill="#920D5F"/>
<path d="M290.838 55.2248C290.838 58.8075 290.014 61.9848 288.366 64.7569C286.745 67.5027 284.431 69.6602 281.423 71.2292C278.416 72.7722 274.833 73.5436 270.675 73.5436H256.946V93H245.374V37.7297H270.204C276.821 37.7297 281.907 39.2596 285.464 42.3192C289.046 45.3528 290.838 49.6546 290.838 55.2248ZM279.187 55.4209C279.187 49.6154 275.762 46.7126 268.91 46.7126H256.946V64.6392H269.224C272.414 64.6392 274.872 63.8546 276.598 62.2856C278.324 60.6904 279.187 58.4021 279.187 55.4209ZM310.529 69.3071V93H298.958V37.7297H310.529V59.7358H334.615V37.7297H346.186V93H334.615V69.3071H310.529ZM410.753 65.1099C410.753 70.8631 409.59 75.8972 407.262 80.2121C404.961 84.5009 401.705 87.8352 397.495 90.2149C393.311 92.5947 388.394 93.7845 382.746 93.7845C376.966 93.7845 371.997 92.6339 367.839 90.3326C363.681 88.0051 360.491 84.697 358.268 80.4083C356.045 76.1195 354.934 71.02 354.934 65.1099C354.934 59.1998 356.032 54.1395 358.229 49.9292C360.452 45.7189 363.642 42.5023 367.8 40.2795C371.984 38.0305 376.992 36.906 382.824 36.906C388.682 36.906 393.69 38.0435 397.848 40.3187C402.006 42.5677 405.196 45.7973 407.419 50.0077C409.642 54.218 410.753 59.2521 410.753 65.1099ZM398.946 65.1099C398.946 59.1474 397.534 54.4795 394.71 51.106C391.885 47.7064 387.923 46.0065 382.824 46.0065C377.646 46.0065 373.645 47.6933 370.821 51.0668C367.996 54.4141 366.584 59.0951 366.584 65.1099C366.584 69.1372 367.238 72.6152 368.546 75.5442C369.853 78.4731 371.71 80.7352 374.116 82.3304C376.548 83.8994 379.424 84.684 382.746 84.684C387.923 84.684 391.912 82.9841 394.71 79.5845C397.534 76.1849 398.946 71.36 398.946 65.1099ZM464.611 84.0563V93H419.54V37.7297H463.003V46.6734H431.112V60.5596H460.61V69.5033H431.112V84.0563H464.611ZM483.401 60.4027V93H473.124V37.7297H486.343L510.781 80.6436C510.31 76.6687 510.075 73.0729 510.075 69.8563V37.7297H520.352V93H506.78L482.695 50.4391C482.93 52.5051 483.1 54.3749 483.205 56.0485C483.336 57.6961 483.401 59.1474 483.401 60.4027ZM542.751 37.7297V93H531.179V37.7297H542.751ZM574.995 70.9939L561.109 93H548.87L568.013 63.9331L550.478 37.7297H562.717L574.995 57.2646L587.273 37.7297H599.433L582.644 63.9331L601.042 93H588.881L574.995 70.9939ZM655.292 84.684C662.3 84.684 667.151 81.1797 669.845 74.1712L679.926 77.9762C677.756 83.311 674.565 87.286 670.355 89.9011C666.171 92.4901 661.15 93.7845 655.292 93.7845C649.382 93.7845 644.348 92.66 640.19 90.411C636.032 88.1359 632.854 84.8539 630.658 80.5652C628.487 76.2764 627.402 71.1246 627.402 65.1099C627.402 59.0428 628.448 53.9172 630.54 49.7331C632.632 45.5489 635.718 42.3715 639.797 40.201C643.877 38.0043 648.872 36.906 654.782 36.906C661.267 36.906 666.55 38.2135 670.63 40.8286C674.709 43.4176 677.573 47.2356 679.22 52.2828L669.021 55.0679C668.158 52.2959 666.458 50.0992 663.922 48.4778C661.411 46.8303 658.443 46.0065 655.017 46.0065C649.787 46.0065 645.812 47.6279 643.092 50.8706C640.399 54.1134 639.052 58.8598 639.052 65.1099C639.052 69.3464 639.667 72.916 640.896 75.8188C642.151 78.7215 643.982 80.9313 646.388 82.448C648.82 83.9387 651.788 84.684 655.292 84.684ZM728.763 84.0563V93H687.536V37.7297H699.108V84.0563H728.763ZM749.75 78.8784L744.846 93H733.274L753.437 37.7297H767.088L787.172 93H775.718L770.814 78.8784H749.75ZM760.262 46.2419C760.001 47.2879 759.635 48.5432 759.164 50.0077C758.693 51.4721 758.353 52.5051 758.144 53.1066L752.339 70.1701H768.225L762.263 52.7535C761.897 51.6813 761.557 50.5961 761.243 49.4977C760.929 48.3994 760.602 47.3141 760.262 46.2419ZM806.275 37.7297V93H794.703V37.7297H806.275ZM827.34 59.5005V93H817.062V37.7297H832.557L842.442 68.6403C842.887 70.3663 843.344 72.1053 843.815 73.8574C844.286 75.5834 844.743 77.3094 845.188 79.0353C845.476 78.0416 845.75 77.0609 846.012 76.0933C846.273 75.0996 846.535 74.1059 846.796 73.1121C847.084 72.1184 847.372 71.1377 847.659 70.1701L857.819 37.7297H873.235V93H862.958V59.5005C862.958 58.7421 862.984 57.2253 863.036 54.9502C863.114 52.6489 863.219 50.1515 863.35 47.4579C862.435 50.9622 861.624 53.9434 860.918 56.4016C860.238 58.8598 859.676 60.7819 859.231 62.1679L849.267 93H841.03L831.066 62.1679L826.869 47.4579C827.026 50.4914 827.144 53.015 827.222 55.0287C827.301 57.0161 827.34 58.5067 827.34 59.5005Z" fill="white"/>
<path d="M290.445 173.937C290.445 179.35 288.432 183.495 284.405 186.372C280.403 189.222 274.519 190.647 266.753 190.647C252.762 190.647 244.616 185.587 242.314 175.467L253.494 173.623C254.252 176.552 255.73 178.683 257.927 180.017C260.123 181.324 263.17 181.978 267.066 181.978C271.12 181.978 274.153 181.364 276.167 180.135C278.181 178.905 279.187 177.062 279.187 174.604C279.187 173.035 278.73 171.74 277.814 170.72C276.899 169.7 275.592 168.85 273.892 168.17C273.055 167.83 271.826 167.464 270.204 167.072C268.583 166.654 266.569 166.196 264.164 165.699C261.392 165.045 259.221 164.496 257.652 164.052C256.083 163.581 254.828 163.136 253.886 162.718C252.945 162.273 252.029 161.79 251.14 161.267C249.179 160.09 247.649 158.521 246.551 156.559C245.452 154.598 244.903 152.153 244.903 149.224C244.903 144.229 246.773 140.411 250.513 137.77C254.278 135.102 259.744 133.769 266.909 133.769C273.761 133.769 278.9 134.841 282.325 136.985C285.777 139.13 288 142.673 288.994 147.616L277.775 149.146C277.2 146.766 276.023 144.974 274.245 143.771C272.493 142.569 269.969 141.967 266.674 141.967C263.17 141.967 260.542 142.516 258.79 143.615C257.037 144.713 256.161 146.36 256.161 148.557C256.161 149.995 256.527 151.172 257.26 152.088C258.018 153.003 259.13 153.787 260.594 154.441C261.98 155.069 264.948 155.866 269.498 156.834C272.14 157.409 274.415 157.958 276.324 158.481C278.233 158.978 279.763 159.462 280.913 159.933C282.064 160.43 283.084 160.953 283.973 161.502C284.888 162.051 285.673 162.639 286.327 163.267C287.66 164.549 288.68 166.078 289.386 167.857C290.092 169.609 290.445 171.635 290.445 173.937ZM352.698 161.973C352.698 167.726 351.534 172.76 349.207 177.075C346.906 181.364 343.65 184.698 339.439 187.078C335.255 189.457 330.339 190.647 324.69 190.647C318.911 190.647 313.942 189.497 309.784 187.195C305.626 184.868 302.436 181.56 300.213 177.271C297.99 172.982 296.879 167.883 296.879 161.973C296.879 156.062 297.977 151.002 300.174 146.792C302.396 142.582 305.587 139.365 309.745 137.142C313.929 134.893 318.937 133.769 324.769 133.769C330.627 133.769 335.634 134.906 339.792 137.181C343.95 139.43 347.141 142.66 349.364 146.87C351.587 151.081 352.698 156.115 352.698 161.973ZM340.891 161.973C340.891 156.01 339.479 151.342 336.654 147.969C333.83 144.569 329.868 142.869 324.769 142.869C319.591 142.869 315.59 144.556 312.765 147.93C309.941 151.277 308.529 155.958 308.529 161.973C308.529 166 309.183 169.478 310.49 172.407C311.798 175.336 313.654 177.598 316.06 179.193C318.492 180.762 321.369 181.547 324.69 181.547C329.868 181.547 333.856 179.847 336.654 176.447C339.479 173.048 340.891 168.223 340.891 161.973ZM402.712 180.919V189.863H361.485V134.592H373.057V180.919H402.712ZM433.583 190.647C428.51 190.647 424.221 189.824 420.717 188.176C417.213 186.502 414.558 184.07 412.754 180.88C410.949 177.663 410.047 173.754 410.047 169.151V134.592H421.619V168.249C421.619 172.616 422.652 175.937 424.718 178.212C426.81 180.461 429.87 181.586 433.897 181.586C438.029 181.586 441.206 180.409 443.429 178.056C445.652 175.676 446.763 172.276 446.763 167.857V134.592H458.335V168.563C458.335 173.218 457.355 177.193 455.393 180.488C453.458 183.783 450.647 186.306 446.96 188.058C443.272 189.784 438.813 190.647 433.583 190.647ZM493.6 143.536V189.863H482.028V143.536H464.18V134.592H511.487V143.536H493.6ZM529.335 134.592V189.863H517.764V134.592H529.335ZM593.863 161.973C593.863 167.726 592.699 172.76 590.372 177.075C588.071 181.364 584.815 184.698 580.605 187.078C576.42 189.457 571.504 190.647 565.855 190.647C560.076 190.647 555.107 189.497 550.949 187.195C546.791 184.868 543.601 181.56 541.378 177.271C539.155 172.982 538.044 167.883 538.044 161.973C538.044 156.062 539.142 151.002 541.339 146.792C543.562 142.582 546.752 139.365 550.91 137.142C555.094 134.893 560.102 133.769 565.934 133.769C571.792 133.769 576.8 134.906 580.958 137.181C585.116 139.43 588.306 142.66 590.529 146.87C592.752 151.081 593.863 156.115 593.863 161.973ZM582.056 161.973C582.056 156.01 580.644 151.342 577.819 147.969C574.995 144.569 571.033 142.869 565.934 142.869C560.756 142.869 556.755 144.556 553.93 147.93C551.106 151.277 549.694 155.958 549.694 161.973C549.694 166 550.348 169.478 551.655 172.407C552.963 175.336 554.82 177.598 557.225 179.193C559.658 180.762 562.534 181.547 565.855 181.547C571.033 181.547 575.021 179.847 577.819 176.447C580.644 173.048 582.056 168.223 582.056 161.973ZM612.927 157.265V189.863H602.65V134.592H615.869L640.307 177.506C639.837 173.531 639.601 169.936 639.601 166.719V134.592H649.879V189.863H636.306L612.221 147.302C612.457 149.368 612.626 151.238 612.731 152.911C612.862 154.559 612.927 156.01 612.927 157.265ZM705.777 173.937C705.777 179.35 703.763 183.495 699.736 186.372C695.735 189.222 689.851 190.647 682.084 190.647C668.093 190.647 659.947 185.587 657.646 175.467L668.825 173.623C669.584 176.552 671.061 178.683 673.258 180.017C675.454 181.324 678.501 181.978 682.398 181.978C686.451 181.978 689.484 181.364 691.498 180.135C693.512 178.905 694.519 177.062 694.519 174.604C694.519 173.035 694.061 171.74 693.146 170.72C692.23 169.7 690.923 168.85 689.223 168.17C688.386 167.83 687.157 167.464 685.536 167.072C683.914 166.654 681.901 166.196 679.495 165.699C676.723 165.045 674.552 164.496 672.983 164.052C671.414 163.581 670.159 163.136 669.217 162.718C668.276 162.273 667.361 161.79 666.472 161.267C664.51 160.09 662.98 158.521 661.882 156.559C660.784 154.598 660.235 152.153 660.235 149.224C660.235 144.229 662.104 140.411 665.844 137.77C669.61 135.102 675.075 133.769 682.241 133.769C689.092 133.769 694.231 134.841 697.657 136.985C701.109 139.13 703.331 142.673 704.325 147.616L693.106 149.146C692.531 146.766 691.354 144.974 689.576 143.771C687.824 142.569 685.3 141.967 682.005 141.967C678.501 141.967 675.873 142.516 674.121 143.615C672.369 144.713 671.493 146.36 671.493 148.557C671.493 149.995 671.859 151.172 672.591 152.088C673.349 153.003 674.461 153.787 675.925 154.441C677.311 155.069 680.279 155.866 684.83 156.834C687.471 157.409 689.746 157.958 691.655 158.481C693.564 158.978 695.094 159.462 696.245 159.933C697.395 160.43 698.415 160.953 699.304 161.502C700.22 162.051 701.004 162.639 701.658 163.267C702.992 164.549 704.011 166.078 704.717 167.857C705.424 169.609 705.777 171.635 705.777 173.937Z" fill="white"/>
</svg>