<svg xmlns="http://www.w3.org/2000/svg" width="1171" height="459" viewBox="0 0 1171 459" fill="none">
<path fill-rule="evenodd" clip-rule="evenodd" d="M536.998 2.88879C536.998 2.88879 484.361 18.2017 483.404 82.3239C482.446 146.446 541.784 153.624 541.784 153.624C475.042 174.818 441.27 97.856 468.6 47.3076C486.831 13.5903 527.546 3.22321 536.998 2.88879ZM502.184 108.752C502.184 108.752 530.511 70.3401 561.961 99.1487C561.961 99.1487 578.046 110.192 571.564 133.479C565.082 156.766 535.313 168.77 509.145 163.488C509.145 163.488 437.125 148.124 450.569 60.2583C450.569 60.2583 432.563 74.4225 431.603 109.473C430.643 144.523 446.967 185.095 473.135 206.701L469.053 210.302C469.053 210.302 427.521 188.216 418.399 125.797C394.7 177.933 440.774 263.908 491.884 291.162C526.283 309.505 570.189 314.253 618.617 298.648C618.617 298.648 620.898 297.328 622.699 299.129C624.499 300.929 624.379 302.49 620.898 304.05C617.417 305.611 577.565 326.496 513.467 309.211C513.467 309.211 544.436 334.179 600.132 327.937C651.251 322.208 692.816 297.692 720.268 262.181C748.839 225.223 762.122 176.354 754.978 124.357C746.335 61.4582 669.512 3.06122 612.856 0C612.856 0 661.83 8.1623 695.44 59.5375C695.44 59.5375 720.887 91.7071 715.606 128.198C715.606 128.198 706.963 59.0576 647.426 32.6498C647.426 32.6498 675.274 50.4148 685.357 91.2269C695.44 132.039 682.476 166.609 638.783 186.295C655.226 161.458 654.78 141.038 648.867 112.834C645.746 97.9492 649.347 95.3086 650.547 89.3067C651.747 83.3048 667.592 80.9041 667.592 80.9041C667.592 80.9041 635.903 72.2616 625.1 65.2995C614.296 58.3374 582.847 35.0504 569.643 38.8916C556.439 42.7329 549.477 48.7344 549.717 57.6172C549.717 57.6172 532.673 57.6174 517.308 72.0216C501.943 86.4259 501.943 101.79 502.184 108.752ZM569.043 52.8157C569.043 52.8157 578.046 50.7751 584.287 61.4582C584.287 61.4582 581.166 59.6578 575.405 59.1776C569.643 58.6974 567.362 58.4576 566.522 56.1767C565.682 53.8959 569.043 52.8157 569.043 52.8157Z" fill="#920D5F"/>
<path d="M0.2771 458.012V397.294H24.2319C28.8371 397.294 32.7604 398.174 36.0018 399.933C39.2432 401.672 41.7138 404.093 43.4136 407.197C45.1331 410.28 45.9929 413.837 45.9929 417.869C45.9929 421.901 45.1232 425.459 43.3839 428.542C41.6446 431.626 39.1246 434.027 35.8239 435.747C32.543 437.466 28.5703 438.326 23.9058 438.326H8.63757V428.038H21.8305C24.3011 428.038 26.3369 427.613 27.9378 426.764C29.5585 425.894 30.7642 424.698 31.5548 423.176C32.3651 421.635 32.7703 419.866 32.7703 417.869C32.7703 415.853 32.3651 414.094 31.5548 412.592C30.7642 411.07 29.5585 409.894 27.9378 409.064C26.3171 408.214 24.2616 407.789 21.7712 407.789H13.1143V458.012H0.2771Z" fill="black"/>
<path d="M54.3311 458.012V397.294H67.1683V422.346H93.2281V397.294H106.036V458.012H93.2281V432.93H67.1683V458.012H54.3311Z" fill="black"/>
<path d="M172.415 427.653C172.415 434.274 171.16 439.907 168.65 444.552C166.16 449.197 162.76 452.744 158.452 455.195C154.163 457.626 149.34 458.842 143.984 458.842C138.588 458.842 133.746 457.616 129.457 455.165C125.168 452.715 121.778 449.167 119.288 444.522C116.797 439.877 115.552 434.254 115.552 427.653C115.552 421.032 116.797 415.399 119.288 410.754C121.778 406.109 125.168 402.572 129.457 400.141C133.746 397.69 138.588 396.464 143.984 396.464C149.34 396.464 154.163 397.69 158.452 400.141C162.76 402.572 166.16 406.109 168.65 410.754C171.16 415.399 172.415 421.032 172.415 427.653ZM159.4 427.653C159.4 423.364 158.758 419.747 157.473 416.802C156.208 413.857 154.42 411.624 152.107 410.102C149.795 408.58 147.087 407.819 143.984 407.819C140.881 407.819 138.173 408.58 135.861 410.102C133.548 411.624 131.749 413.857 130.465 416.802C129.2 419.747 128.567 423.364 128.567 427.653C128.567 431.942 129.2 435.559 130.465 438.504C131.749 441.449 133.548 443.682 135.861 445.204C138.173 446.726 140.881 447.487 143.984 447.487C147.087 447.487 149.795 446.726 152.107 445.204C154.42 443.682 156.208 441.449 157.473 438.504C158.758 435.559 159.4 431.942 159.4 427.653Z" fill="black"/>
<path d="M181.925 458.012V397.294H222.838V407.878H194.762V422.346H220.733V432.93H194.762V447.428H222.956V458.012H181.925Z" fill="black"/>
<path d="M283.829 397.294V458.012H272.741L246.326 419.797H245.881V458.012H233.044V397.294H244.31L270.518 435.48H271.051V397.294H283.829Z" fill="black"/>
<path d="M307.272 397.294V458.012H294.435V397.294H307.272Z" fill="black"/>
<path d="M329.871 397.294L342.115 417.988H342.59L354.893 397.294H369.391L350.861 427.653L369.806 458.012H355.041L342.59 437.288H342.115L329.663 458.012H314.958L333.962 427.653L315.314 397.294H329.871Z" fill="black"/>
<path d="M450.409 418.551H437.423C437.186 416.871 436.702 415.379 435.97 414.075C435.239 412.75 434.3 411.624 433.154 410.695C432.008 409.766 430.683 409.054 429.181 408.56C427.699 408.066 426.088 407.819 424.349 407.819C421.206 407.819 418.469 408.6 416.137 410.161C413.804 411.703 411.996 413.956 410.711 416.921C409.426 419.866 408.784 423.443 408.784 427.653C408.784 431.981 409.426 435.618 410.711 438.563C412.016 441.508 413.834 443.732 416.166 445.234C418.498 446.736 421.196 447.487 424.26 447.487C425.979 447.487 427.57 447.26 429.033 446.805C430.515 446.35 431.83 445.688 432.976 444.819C434.122 443.929 435.071 442.852 435.822 441.587C436.593 440.322 437.127 438.879 437.423 437.259L450.409 437.318C450.073 440.105 449.233 442.793 447.889 445.382C446.564 447.951 444.776 450.254 442.522 452.29C440.289 454.306 437.621 455.907 434.518 457.093C431.434 458.259 427.946 458.842 424.052 458.842C418.637 458.842 413.794 457.616 409.525 455.165C405.276 452.715 401.916 449.167 399.445 444.522C396.994 439.877 395.769 434.254 395.769 427.653C395.769 421.032 397.014 415.399 399.505 410.754C401.995 406.109 405.375 402.572 409.644 400.141C413.913 397.69 418.716 396.464 424.052 396.464C427.57 396.464 430.832 396.958 433.836 397.947C436.86 398.935 439.538 400.378 441.87 402.275C444.202 404.153 446.1 406.455 447.562 409.183C449.045 411.91 449.993 415.033 450.409 418.551Z" fill="black"/>
<path d="M459.614 458.012V397.294H472.451V447.428H498.481V458.012H459.614Z" fill="black"/>
<path d="M518.997 458.012H505.241L526.201 397.294H542.744L563.675 458.012H549.919L534.71 411.169H534.236L518.997 458.012ZM518.137 434.146H550.63V444.166H518.137V434.146Z" fill="black"/>
<path d="M583.82 397.294V458.012H570.983V397.294H583.82Z" fill="black"/>
<path d="M594.382 397.294H610.214L626.935 438.089H627.646L644.367 397.294H660.199V458.012H647.747V418.492H647.243L631.53 457.715H623.051L607.338 418.344H606.834V458.012H594.382V397.294Z" fill="black"/>
<path d="M723.036 414.757C722.798 412.365 721.78 410.507 719.982 409.183C718.183 407.859 715.742 407.197 712.659 407.197C710.564 407.197 708.795 407.493 707.352 408.086C705.909 408.659 704.803 409.46 704.032 410.487C703.281 411.515 702.905 412.681 702.905 413.986C702.866 415.073 703.093 416.021 703.587 416.832C704.101 417.642 704.803 418.344 705.692 418.937C706.581 419.51 707.609 420.014 708.775 420.449C709.941 420.864 711.187 421.22 712.511 421.516L717.966 422.821C720.614 423.413 723.045 424.204 725.259 425.192C727.473 426.181 729.39 427.396 731.011 428.839C732.631 430.282 733.886 431.981 734.776 433.938C735.685 435.895 736.149 438.138 736.169 440.668C736.149 444.384 735.201 447.605 733.323 450.333C731.465 453.041 728.777 455.146 725.259 456.648C721.761 458.13 717.541 458.871 712.6 458.871C707.698 458.871 703.429 458.12 699.792 456.618C696.175 455.116 693.349 452.893 691.313 449.948C689.297 446.983 688.24 443.317 688.141 438.949H700.563C700.701 440.984 701.284 442.684 702.312 444.048C703.36 445.392 704.753 446.41 706.492 447.101C708.252 447.773 710.238 448.109 712.452 448.109C714.626 448.109 716.513 447.793 718.114 447.161C719.735 446.528 720.99 445.649 721.879 444.522C722.769 443.396 723.213 442.101 723.213 440.638C723.213 439.275 722.808 438.128 721.998 437.199C721.207 436.27 720.041 435.48 718.5 434.828C716.978 434.175 715.11 433.582 712.896 433.049L706.285 431.389C701.166 430.143 697.124 428.197 694.159 425.548C691.195 422.9 689.722 419.332 689.742 414.845C689.722 411.169 690.7 407.957 692.677 405.21C694.673 402.463 697.411 400.318 700.889 398.777C704.368 397.235 708.321 396.464 712.748 396.464C717.254 396.464 721.188 397.235 724.548 398.777C727.927 400.318 730.556 402.463 732.434 405.21C734.311 407.957 735.28 411.14 735.339 414.757H723.036Z" fill="black"/>
<path d="M800.6 427.653C800.6 434.274 799.345 439.907 796.835 444.552C794.344 449.197 790.945 452.744 786.636 455.195C782.347 457.626 777.524 458.842 772.168 458.842C766.772 458.842 761.93 457.616 757.641 455.165C753.352 452.715 749.963 449.167 747.472 444.522C744.982 439.877 743.737 434.254 743.737 427.653C743.737 421.032 744.982 415.399 747.472 410.754C749.963 406.109 753.352 402.572 757.641 400.141C761.93 397.69 766.772 396.464 772.168 396.464C777.524 396.464 782.347 397.69 786.636 400.141C790.945 402.572 794.344 406.109 796.835 410.754C799.345 415.399 800.6 421.032 800.6 427.653ZM787.585 427.653C787.585 423.364 786.942 419.747 785.658 416.802C784.393 413.857 782.604 411.624 780.292 410.102C777.979 408.58 775.271 407.819 772.168 407.819C769.065 407.819 766.357 408.58 764.045 410.102C761.732 411.624 759.934 413.857 758.649 416.802C757.384 419.747 756.752 423.364 756.752 427.653C756.752 431.942 757.384 435.559 758.649 438.504C759.934 441.449 761.732 443.682 764.045 445.204C766.357 446.726 769.065 447.487 772.168 447.487C775.271 447.487 777.979 446.726 780.292 445.204C782.604 443.682 784.393 441.449 785.658 438.504C786.942 435.559 787.585 431.942 787.585 427.653Z" fill="black"/>
<path d="M810.109 458.012V397.294H822.946V447.428H848.976V458.012H810.109Z" fill="black"/>
<path d="M894.981 397.294H907.818V436.725C907.818 441.152 906.761 445.026 904.646 448.347C902.551 451.667 899.616 454.256 895.841 456.114C892.066 457.952 887.668 458.871 882.648 458.871C877.608 458.871 873.2 457.952 869.425 456.114C865.65 454.256 862.715 451.667 860.62 448.347C858.525 445.026 857.478 441.152 857.478 436.725V397.294H870.315V435.628C870.315 437.941 870.819 439.996 871.827 441.795C872.855 443.593 874.297 445.006 876.155 446.034C878.013 447.062 880.177 447.576 882.648 447.576C885.138 447.576 887.303 447.062 889.141 446.034C890.999 445.006 892.432 443.593 893.44 441.795C894.467 439.996 894.981 437.941 894.981 435.628V397.294Z" fill="black"/>
<path d="M916.068 407.878V397.294H965.934V407.878H947.345V458.012H934.656V407.878H916.068Z" fill="black"/>
<path d="M986.983 397.294V458.012H974.146V397.294H986.983Z" fill="black"/>
<path d="M1053.34 427.653C1053.34 434.274 1052.09 439.907 1049.58 444.552C1047.09 449.197 1043.69 452.744 1039.38 455.195C1035.09 457.626 1030.27 458.842 1024.91 458.842C1019.51 458.842 1014.67 457.616 1010.38 455.165C1006.09 452.715 1002.7 449.167 1000.21 444.522C997.723 439.877 996.478 434.254 996.478 427.653C996.478 421.032 997.723 415.399 1000.21 410.754C1002.7 406.109 1006.09 402.572 1010.38 400.141C1014.67 397.69 1019.51 396.464 1024.91 396.464C1030.27 396.464 1035.09 397.69 1039.38 400.141C1043.69 402.572 1047.09 406.109 1049.58 410.754C1052.09 415.399 1053.34 421.032 1053.34 427.653ZM1040.33 427.653C1040.33 423.364 1039.68 419.747 1038.4 416.802C1037.13 413.857 1035.35 411.624 1033.03 410.102C1030.72 408.58 1028.01 407.819 1024.91 407.819C1021.81 407.819 1019.1 408.58 1016.79 410.102C1014.47 411.624 1012.68 413.857 1011.39 416.802C1010.13 419.747 1009.49 423.364 1009.49 427.653C1009.49 431.942 1010.13 435.559 1011.39 438.504C1012.68 441.449 1014.47 443.682 1016.79 445.204C1019.1 446.726 1021.81 447.487 1024.91 447.487C1028.01 447.487 1030.72 446.726 1033.03 445.204C1035.35 443.682 1037.13 441.449 1038.4 438.504C1039.68 435.559 1040.33 431.942 1040.33 427.653Z" fill="black"/>
<path d="M1113.64 397.294V458.012H1102.55L1076.13 419.797H1075.69V458.012H1062.85V397.294H1074.12L1100.32 435.48H1100.86V397.294H1113.64Z" fill="black"/>
<path d="M1157.18 414.757C1156.94 412.365 1155.92 410.507 1154.13 409.183C1152.33 407.859 1149.89 407.197 1146.8 407.197C1144.71 407.197 1142.94 407.493 1141.5 408.086C1140.05 408.659 1138.95 409.46 1138.18 410.487C1137.42 411.515 1137.05 412.681 1137.05 413.986C1137.01 415.073 1137.24 416.021 1137.73 416.832C1138.25 417.642 1138.95 418.344 1139.84 418.937C1140.73 419.51 1141.75 420.014 1142.92 420.449C1144.09 420.864 1145.33 421.22 1146.66 421.516L1152.11 422.821C1154.76 423.413 1157.19 424.204 1159.4 425.192C1161.62 426.181 1163.53 427.396 1165.15 428.839C1166.78 430.282 1168.03 431.981 1168.92 433.938C1169.83 435.895 1170.29 438.138 1170.31 440.668C1170.29 444.384 1169.35 447.605 1167.47 450.333C1165.61 453.041 1162.92 455.146 1159.4 456.648C1155.9 458.13 1151.69 458.871 1146.74 458.871C1141.84 458.871 1137.57 458.12 1133.94 456.618C1130.32 455.116 1127.49 452.893 1125.46 449.948C1123.44 446.983 1122.38 443.317 1122.29 438.949H1134.71C1134.85 440.984 1135.43 442.684 1136.46 444.048C1137.5 445.392 1138.9 446.41 1140.64 447.101C1142.4 447.773 1144.38 448.109 1146.6 448.109C1148.77 448.109 1150.66 447.793 1152.26 447.161C1153.88 446.528 1155.13 445.649 1156.02 444.522C1156.91 443.396 1157.36 442.101 1157.36 440.638C1157.36 439.275 1156.95 438.128 1156.14 437.199C1155.35 436.27 1154.19 435.48 1152.64 434.828C1151.12 434.175 1149.25 433.582 1147.04 433.049L1140.43 431.389C1135.31 430.143 1131.27 428.197 1128.3 425.548C1125.34 422.9 1123.87 419.332 1123.89 414.845C1123.87 411.169 1124.84 407.957 1126.82 405.21C1128.82 402.463 1131.55 400.318 1135.03 398.777C1138.51 397.235 1142.47 396.464 1146.89 396.464C1151.4 396.464 1155.33 397.235 1158.69 398.777C1162.07 400.318 1164.7 402.463 1166.58 405.21C1168.46 407.957 1169.42 411.14 1169.48 414.757H1157.18Z" fill="black"/>
</svg>