                            <svg xmlns="http://www.w3.org/2000/svg" width="50px" height="50px" viewBox="0,0,256,256"><g fill="#ffffff" fill-rule="nonzero" stroke="none" stroke-width="1" stroke-linecap="butt" stroke-linejoin="miter" stroke-miterlimit="10" stroke-dasharray="" stroke-dashoffset="0" font-family="none" font-weight="none" font-size="none" text-anchor="none" style="mix-blend-mode: normal"><g transform="scale(5.12,5.12)"><path d="M19.26563,3c-1.7547,0 -3.3859,0.92246 -4.28906,2.42773l-1.54297,2.57227h-7.61523c-3.20031,0 -5.81836,2.61805 -5.81836,5.81836v22.36524c0,3.19951 2.61805,5.81641 5.81836,5.81641h38.36523c3.19951,0 5.81641,-2.61805 5.81641,-5.81836v-22.36328c0,-3.20031 -2.61805,-5.81836 -5.81836,-5.81836h-7.61523l-1.54687,-2.57812c-0.90093,-1.50072 -2.52659,-2.42187 -4.27734,-2.42187zM19.26563,5h11.47656c1.05125,0 2.02143,0.5499 2.5625,1.45117l2.12891,3.54883h8.74805c2.11769,0 3.81836,1.70067 3.81836,3.81836v22.36328c0,2.11769 -1.69992,3.81836 -3.81641,3.81836h-38.36523c-2.11769,0 -3.81836,-1.69992 -3.81836,-3.81641v-22.36523c0,-2.11769 1.70067,-3.81836 3.81836,-3.81836h8.74805l0.29102,-0.48633l1.83398,-3.05664c0.54284,-0.90473 1.51892,-1.45703 2.57422,-1.45703zM25,12c-7.16786,0 -13,5.83214 -13,13c0,7.16786 5.83214,13 13,13c7.16786,0 13,-5.83214 13,-13c0,-7.16786 -5.83214,-13 -13,-13zM25,14c6.08698,0 11,4.91302 11,11c0,6.08698 -4.91302,11 -11,11c-6.08698,0 -11,-4.91302 -11,-11c0,-6.08698 4.91302,-11 11,-11zM25,16.5c-4.68258,0 -8.5,3.81743 -8.5,8.5c0,4.68258 3.81742,8.5 8.5,8.5c4.68258,0 8.5,-3.81742 8.5,-8.5c0,-4.68257 -3.81742,-8.5 -8.5,-8.5zM25,18.5c3.6017,0 6.5,2.8983 6.5,6.5c0,3.6017 -2.8983,6.5 -6.5,6.5c-3.6017,0 -6.5,-2.8983 -6.5,-6.5c0,-3.6017 2.8983,-6.5 6.5,-6.5z"></path></g></g></svg>
